<?xml version="1.0" encoding="UTF-8"?>
<svg id="Layer_1" xmlns="http://www.w3.org/2000/svg" version="1.1" viewBox="0 0 1134.6 133.8">
  <!-- Generator: Adobe Illustrator 29.3.1, SVG Export Plug-In . SVG Version: 2.1.0 Build 151)  -->
  <defs>
    <style>
      .st0 {
        fill: #fdfeff;
      }
    </style>
  </defs>
  <path class="st0" d="M59.6,129.4c-11,0-20.9-2.5-29.6-7.5-8.7-5-15.6-12.3-20.7-21.8-5.1-9.5-7.6-21-7.6-34.5s2.5-25.1,7.6-34.7c5.1-9.6,12.1-16.8,20.8-21.8,8.8-5,18.7-7.5,29.6-7.5s13.9,1,20.1,3.1c6.2,2,11.6,5,16.4,8.9,4.8,3.8,8.7,8.6,11.7,14.2,3,5.6,4.9,11.9,5.8,19.1h-26.6c-.5-3.4-1.5-6.5-3-9.2-1.4-2.7-3.4-5-5.8-6.9-2.3-1.9-5-3.3-8.1-4.3-3-1.1-6.3-1.6-9.9-1.6-6.3,0-11.9,1.6-16.8,4.8-4.8,3.2-8.5,7.8-11.2,13.9-2.6,6-3.9,13.4-3.9,22s1.3,16.3,4,22.4c2.7,6,6.4,10.6,11.2,13.6,4.8,3.1,10.3,4.6,16.6,4.6s6.8-.5,9.8-1.4c3-.9,5.7-2.3,8-4.1,2.3-1.8,4.3-4,5.8-6.5,1.6-2.6,2.7-5.6,3.3-8.9h26.6c-.7,5.7-2.4,11.2-5.1,16.5-2.7,5.3-6.3,10-10.9,14.2-4.6,4.1-10.1,7.4-16.5,9.9-6.3,2.4-13.5,3.6-21.5,3.6ZM132.2,127.7V3.3h26.2v102.7h53.4v21.7h-79.6ZM255.1,3.3v124.4h-26.2V3.3h26.2ZM276.4,127.7V3.3h83.8v21.7h-57.6v29.2h53.3v21.3h-53.3v30.5h57.8v21.7h-84ZM484.9,3.3v124.4h-22.7l-54-78.3h-1.1v78.3h-26.2V3.3h23.1l53.7,78.3h1.1V3.3h26.2ZM501.4,25V3.3h102.2v21.7h-38.1v102.7h-26V25h-38.2ZM659.4,127.7V3.3h26.2v102.7h53.4v21.7h-79.6ZM807.3,129.4c-11,0-20.9-2.5-29.7-7.5-8.8-5-15.8-12.3-20.9-21.8-5.1-9.5-7.7-21-7.7-34.5s2.6-25.1,7.7-34.7c5.1-9.6,12.1-16.8,20.9-21.8,8.8-5,18.7-7.5,29.7-7.5s20.9,2.5,29.7,7.5c8.8,5,15.7,12.2,20.8,21.8,5.1,9.5,7.7,21.1,7.7,34.7s-2.6,25.1-7.7,34.6c-5.1,9.5-12,16.8-20.8,21.8-8.8,5-18.7,7.4-29.7,7.4ZM807.3,106.2c6.4,0,12-1.6,16.7-4.7,4.7-3.1,8.4-7.7,10.9-13.7,2.6-6.1,3.9-13.5,3.9-22.2s-1.3-16.2-3.9-22.3c-2.6-6.1-6.2-10.7-10.9-13.8-4.7-3.1-10.3-4.7-16.7-4.7s-11.9,1.6-16.6,4.7c-4.7,3.1-8.4,7.7-11.1,13.8-2.6,6.1-3.9,13.5-3.9,22.3s1.3,16.1,3.9,22.2c2.7,6,6.4,10.6,11.1,13.7,4.7,3.1,10.3,4.7,16.6,4.7ZM941.1,129.4c-11.7,0-22-2.6-30.8-7.7-8.8-5.2-15.7-12.5-20.6-22-4.9-9.6-7.3-20.9-7.3-34s2.6-25,7.7-34.5c5.2-9.6,12.2-16.9,21-22,8.8-5.1,18.7-7.6,29.6-7.6s13.6,1,19.6,3.1c6.1,2,11.5,4.9,16.2,8.7,4.7,3.7,8.6,8.2,11.5,13.3,3,5.1,4.9,10.7,5.8,16.9h-26.6c-.8-3-2-5.6-3.6-7.9-1.5-2.3-3.4-4.3-5.6-5.8-2.2-1.6-4.8-2.8-7.6-3.7-2.8-.9-5.9-1.3-9.3-1.3-6.3,0-11.9,1.6-16.8,4.8-4.8,3.1-8.5,7.7-11.3,13.8-2.7,6.1-4,13.4-4,22s1.3,16,4,22c2.7,6.1,6.4,10.7,11.2,13.9,4.8,3.2,10.5,4.8,17.1,4.8s11-1.1,15.2-3.2c4.2-2.2,7.5-5.2,9.7-9.1,2.3-3.9,3.4-8.5,3.4-13.8l5.3.8h-32v-19.8h52v15.7c0,10.9-2.3,20.3-6.9,28.1-4.6,7.9-11,13.9-19.1,18.1-8.1,4.2-17.3,6.3-27.8,6.3ZM1070.5,129.4c-11,0-20.9-2.5-29.7-7.5-8.8-5-15.8-12.3-20.9-21.8-5.1-9.5-7.7-21-7.7-34.5s2.6-25.1,7.7-34.7c5.1-9.6,12.1-16.8,20.9-21.8,8.8-5,18.7-7.5,29.7-7.5s20.9,2.5,29.7,7.5c8.8,5,15.7,12.2,20.8,21.8,5.1,9.5,7.7,21.1,7.7,34.7s-2.6,25.1-7.7,34.6c-5.1,9.5-12,16.8-20.8,21.8-8.8,5-18.7,7.4-29.7,7.4ZM1070.5,106.2c6.4,0,12-1.6,16.7-4.7,4.7-3.1,8.4-7.7,10.9-13.7,2.6-6.1,3.9-13.5,3.9-22.2s-1.3-16.2-3.9-22.3c-2.6-6.1-6.2-10.7-10.9-13.8-4.7-3.1-10.3-4.7-16.7-4.7s-11.9,1.6-16.6,4.7c-4.7,3.1-8.4,7.7-11.1,13.8-2.6,6.1-3.9,13.5-3.9,22.3s1.3,16.1,3.9,22.2c2.7,6,6.4,10.6,11.1,13.7,4.7,3.1,10.3,4.7,16.6,4.7Z"/>
</svg>