<?xml version="1.0" encoding="UTF-8"?>
<svg id="Layer_1" xmlns="http://www.w3.org/2000/svg" xmlns:xlink="http://www.w3.org/1999/xlink" version="1.1" viewBox="0 0 692.8 666.5">
  <!-- Generator: Adobe Illustrator 29.3.1, SVG Export Plug-In . SVG Version: 2.1.0 Build 151)  -->
  <defs>
    <style>
      .st0 {
        fill: none;
      }

      .st1 {
        fill: #ffc22a;
      }

      .st2 {
        fill: #fff;
      }

      .st3 {
        clip-path: url(#clippath);
      }
    </style>
    <clipPath id="clippath">
      <rect class="st0" x="7.2" y="6.6" width="671.4" height="649" rx="89.5" ry="89.5"/>
    </clipPath>
  </defs>
  <g class="st3">
    <g>
      <rect x="7.2" y="6.6" width="661.9" height="649"/>
      <path class="st2" d="M142.6,266.5v-93h71.2c30.6,0,50.7,18.7,50.7,46.3s-20.5,46.7-50.7,46.7h-71.2ZM256.9,437.7h72.4l-52.3-130.4,2.5-.9c23-9.3,49.4-37.8,49.4-86.2s-42.3-102.4-105.1-102.4H79.8v319.9h62.8v-115.5h72.4l41.9,115.5Z"/>
      <path class="st2" d="M606,345.8c0-70.9-66.1-87.1-119.1-99.5-35.2-9-65.7-15.8-65.7-38s18.7-35.4,48.7-35.4c33.9-.4,67,12,93.3,34.2l35.2-46.5c-31.4-28.6-72.5-42.7-121.7-42.7-70.4,0-119.5,39.3-119.5,96s64.4,85.4,116.1,98.2c37.3,8.5,69.1,16.2,69.1,41.8s-18.2,38.8-58.5,38.8c-38.1.4-75-14.9-102.2-42.3l-34.3,47.4c32.6,32.4,77.1,49.1,132.7,49.1,78.8.4,126.3-37.6,125.9-101.2Z"/>
      <path class="st1" d="M615.1,511.9H66.2v69.5h548.9v-69.5Z"/>
    </g>
  </g>
</svg>