<?xml version="1.0" encoding="UTF-8"?>
<svg id="Layer_1" xmlns="http://www.w3.org/2000/svg" version="1.1" viewBox="0 0 1600.8 524.4">
  <!-- Generator: Adobe Illustrator 29.3.1, SVG Export Plug-In . SVG Version: 2.1.0 Build 151)  -->
  <defs>
    <style>
      .st0 {
        fill: #f0e00d;
      }

      .st1 {
        fill: #181a1e;
      }

      .st2 {
        fill: #474d5a;
      }
    </style>
  </defs>
  <path class="st2" d="M56,156.2h-11.3l32.6-88.5h11.1l32.4,88.5h-11.2l-26.5-74.5h-.7l-26.4,74.5ZM60.2,121.6h45.3v9.5h-45.3v-9.5ZM128.3,156.2v-66.4h10.1v66.4h-10.1ZM133.4,78.7c-2,0-3.7-.7-5.1-2-1.4-1.3-2.1-3-2.1-4.9s.7-3.5,2.1-4.9c1.4-1.3,3.1-2,5.1-2s3.7.7,5.1,2c1.4,1.3,2.1,3,2.1,4.9s-.7,3.5-2.1,4.9c-1.4,1.3-3.1,2-5.1,2ZM207.8,157.6c-6.4,0-11.9-1.4-16.6-4.3-4.6-2.9-8.2-6.8-10.7-11.9-2.5-5.1-3.7-11.1-3.7-17.9s1.2-12.8,3.7-18c2.5-5.2,5.9-9.2,10.3-12.2,4.5-2.9,9.7-4.4,15.7-4.4s6.9.6,10.3,1.7c3.4,1.1,6.5,3,9.3,5.6,2.8,2.6,5,6,6.7,10.2,1.7,4.2,2.5,9.4,2.5,15.6v4.4h-51.2v-8.8h45.7l-4.7,3.3c0-4.4-.7-8.4-2.1-11.8-1.4-3.4-3.5-6.2-6.2-8.1-2.7-2-6.1-3-10.2-3s-7.6,1-10.5,3c-2.9,2-5.1,4.6-6.7,7.8-1.5,3.2-2.3,6.7-2.3,10.3v5.8c0,5,.9,9.3,2.6,12.8,1.7,3.5,4.2,6.1,7.3,8,3.1,1.8,6.8,2.7,10.9,2.7s5.1-.4,7.2-1.1c2.2-.8,4.1-2,5.6-3.5,1.6-1.6,2.8-3.5,3.6-5.8l9.9,2.9c-1,3.3-2.8,6.3-5.2,8.8-2.4,2.5-5.4,4.5-9,5.9-3.6,1.4-7.6,2.1-12.1,2.1ZM254.9,116.3v39.9h-10.1v-66.4h9.7v10.5h.9c1.5-3.4,3.9-6.1,7.1-8.2,3.2-2.1,7.3-3.1,12.3-3.1s8.4.9,11.8,2.7c3.4,1.8,6,4.6,7.8,8.3,1.9,3.7,2.9,8.4,2.9,14v42.2h-10.1v-41.5c0-5.2-1.4-9.2-4.1-12.2-2.7-3-6.5-4.5-11.2-4.5s-6.2.7-8.7,2.1c-2.6,1.4-4.6,3.5-6.1,6.2-1.5,2.7-2.2,6-2.2,9.9ZM329.9,157.7c-4.2,0-8-.8-11.5-2.4-3.4-1.6-6.2-4-8.2-7-2-3-3-6.7-3-11.1s.8-6.9,2.3-9.2c1.5-2.4,3.5-4.2,6-5.6,2.5-1.4,5.3-2.4,8.3-3.1,3-.7,6.1-1.2,9.2-1.6,4-.5,7.3-.9,9.8-1.2,2.5-.3,4.4-.8,5.5-1.4,1.2-.7,1.8-1.8,1.8-3.4v-.4c0-4.2-1.2-7.5-3.5-9.9-2.3-2.4-5.8-3.6-10.5-3.6s-8.6,1.1-11.4,3.2c-2.8,2.1-4.7,4.4-5.8,6.8l-9.7-3.4c1.7-4,4.1-7.2,7-9.4,2.9-2.3,6.1-3.8,9.5-4.8,3.4-.9,6.8-1.4,10.2-1.4s4.6.3,7.4.8c2.8.5,5.5,1.5,8.1,3.1,2.7,1.5,4.8,3.9,6.5,7.1,1.7,3.1,2.6,7.3,2.6,12.6v43.7h-10.2v-9h-.5c-.7,1.4-1.8,3-3.4,4.6-1.6,1.6-3.8,3-6.5,4.2-2.7,1.1-5.9,1.7-9.8,1.7ZM331.5,148.6c4,0,7.4-.8,10.2-2.4,2.8-1.6,4.9-3.6,6.3-6.1,1.4-2.5,2.1-5.2,2.1-7.9v-9.4c-.4.5-1.4,1-2.9,1.4-1.4.4-3.1.8-5,1.1-1.9.3-3.7.6-5.5.8-1.8.2-3.2.4-4.3.5-2.7.4-5.1.9-7.4,1.7-2.3.8-4.2,1.9-5.6,3.4-1.4,1.5-2.1,3.6-2.1,6.2s1.3,6.2,3.9,8c2.7,1.8,6,2.7,10.1,2.7ZM403.7,157.6c-4.2,0-7.6-.7-10.2-2.1-2.6-1.5-4.6-3.1-5.9-4.9-1.4-1.9-2.5-3.4-3.2-4.6h-1.2v10.2h-9.7v-88.5h10.1v32.7h.8c.8-1.1,1.8-2.6,3.1-4.4,1.3-1.8,3.3-3.4,5.8-4.9,2.5-1.4,6-2.1,10.3-2.1s10.5,1.4,14.7,4.2c4.2,2.8,7.5,6.7,9.9,11.9,2.4,5.1,3.6,11.1,3.6,18.1s-1.2,13.1-3.6,18.3c-2.4,5.1-5.7,9.1-9.9,11.9-4.2,2.8-9.1,4.2-14.7,4.2ZM402.4,148.5c4.2,0,7.8-1.1,10.6-3.4,2.9-2.3,5-5.4,6.4-9.2,1.5-3.8,2.2-8.1,2.2-12.8s-.7-8.9-2.1-12.7c-1.4-3.8-3.6-6.8-6.4-9-2.8-2.2-6.4-3.3-10.7-3.3s-7.6,1-10.5,3.1c-2.8,2.1-5,5-6.4,8.7-1.4,3.7-2.1,8.1-2.1,13.1s.7,9.4,2.2,13.2c1.5,3.8,3.6,6.8,6.4,9,2.9,2.1,6.3,3.2,10.4,3.2ZM451.8,67.7v88.5h-10.1v-88.5h10.1ZM492.7,157.6c-6.4,0-11.9-1.4-16.6-4.3-4.6-2.9-8.2-6.8-10.7-11.9-2.5-5.1-3.7-11.1-3.7-17.9s1.2-12.8,3.7-18c2.5-5.2,5.9-9.2,10.3-12.2,4.5-2.9,9.7-4.4,15.7-4.4s6.9.6,10.3,1.7c3.4,1.1,6.5,3,9.3,5.6,2.8,2.6,5.1,6,6.7,10.2,1.7,4.2,2.5,9.4,2.5,15.6v4.4h-51.2v-8.8h45.7l-4.7,3.3c0-4.4-.7-8.4-2.1-11.8-1.4-3.4-3.5-6.2-6.2-8.1-2.7-2-6.1-3-10.2-3s-7.6,1-10.5,3c-2.9,2-5.1,4.6-6.7,7.8-1.5,3.2-2.3,6.7-2.3,10.3v5.8c0,5,.9,9.3,2.6,12.8,1.7,3.5,4.2,6.1,7.3,8,3.1,1.8,6.8,2.7,10.9,2.7s5.1-.4,7.2-1.1c2.2-.8,4.1-2,5.6-3.5,1.6-1.6,2.8-3.5,3.6-5.8l9.9,2.9c-1,3.3-2.8,6.3-5.2,8.8-2.4,2.5-5.4,4.5-9,5.9-3.6,1.4-7.6,2.1-12.1,2.1ZM554.7,157.6c-5.5,0-10.4-1.4-14.7-4.2-4.2-2.8-7.5-6.8-9.9-11.9-2.4-5.2-3.6-11.3-3.6-18.3s1.2-13,3.6-18.1c2.4-5.1,5.7-9.1,10-11.9,4.2-2.8,9.1-4.2,14.7-4.2s7.8.7,10.3,2.1c2.5,1.4,4.5,3,5.8,4.9,1.3,1.8,2.4,3.2,3.1,4.4h.8v-32.7h10.1v88.5h-9.7v-10.2h-1.2c-.8,1.2-1.8,2.7-3.2,4.6-1.4,1.8-3.4,3.5-5.9,4.9-2.5,1.4-5.9,2.1-10.2,2.1ZM556,148.5c4.1,0,7.6-1.1,10.4-3.2,2.8-2.2,5-5.2,6.4-9,1.5-3.8,2.2-8.3,2.2-13.2s-.7-9.3-2.1-13.1c-1.4-3.8-3.6-6.7-6.4-8.7-2.8-2.1-6.3-3.1-10.5-3.1s-7.8,1.1-10.7,3.3c-2.9,2.2-5,5.2-6.4,9-1.4,3.8-2.1,8-2.1,12.7s.7,9,2.1,12.8c1.5,3.8,3.6,6.9,6.5,9.2,2.9,2.3,6.4,3.4,10.6,3.4ZM651.6,157.4c-5.8,0-10.8-1-15-3.1-4.2-2.1-7.4-5.1-9.7-8.8-2.3-3.7-3.4-8-3.4-12.8s.8-6.9,2.4-9.7c1.6-2.8,3.8-5.4,6.6-7.8,2.8-2.5,6-5,9.5-7.6l12.8-9.5c2.4-1.8,4.4-3.6,5.9-5.3,1.5-1.8,2.3-4.2,2.3-7.2s-1-4.4-3-6.5c-1.9-2.1-4.5-3.2-7.7-3.2s-4.2.6-5.9,1.7c-1.7,1.1-3,2.5-4,4.3-1,1.7-1.4,3.5-1.4,5.4s.6,4.2,1.7,6.3c1.1,2.1,2.6,4.3,4.4,6.5,1.8,2.2,3.6,4.4,5.5,6.8l40.6,49.5h-12.4l-33.5-40.4c-3.1-3.8-5.9-7.2-8.4-10.2-2.5-3.1-4.6-6.1-6.1-9-1.5-3-2.3-6.2-2.3-9.6s.9-7.5,2.7-10.5c1.8-3,4.3-5.3,7.5-7,3.2-1.7,7-2.6,11.2-2.6s8.3.9,11.5,2.6c3.2,1.7,5.7,4,7.4,6.8,1.7,2.8,2.6,5.9,2.6,9.2s-1.1,7.8-3.2,10.9c-2.1,3.1-5,6-8.6,8.7l-17.7,13.2c-4,2.9-6.6,5.8-8,8.6-1.4,2.8-2.1,4.8-2.1,5.9,0,2.8.7,5.4,2.1,7.8,1.5,2.4,3.5,4.3,6.1,5.8,2.6,1.5,5.7,2.2,9.2,2.2s6.6-.7,9.7-2.1c3.2-1.5,6-3.5,8.6-6.2,2.6-2.7,4.6-5.9,6.1-9.7,1.5-3.8,2.3-8.1,2.3-12.9h9.9c0,5.9-.7,10.7-2,14.4-1.3,3.7-2.9,6.6-4.6,8.7-1.7,2.1-3.1,3.7-4.1,4.7-.4.4-.7.9-1,1.3-.3.4-.6.9-.9,1.3-2.9,3.2-6.5,5.6-10.9,7.2-4.4,1.5-8.7,2.3-12.9,2.3ZM727.2,181v-91.3h9.7v10.6h1.2c.8-1.1,1.8-2.6,3.1-4.4,1.3-1.8,3.3-3.4,5.8-4.9,2.5-1.4,6-2.1,10.3-2.1s10.5,1.4,14.7,4.2c4.2,2.8,7.5,6.7,9.9,11.9,2.4,5.1,3.6,11.1,3.6,18.1s-1.2,13.1-3.6,18.3c-2.4,5.1-5.7,9.1-9.9,11.9-4.2,2.8-9.1,4.2-14.7,4.2s-7.6-.7-10.2-2.1c-2.6-1.5-4.6-3.1-5.9-4.9-1.4-1.9-2.5-3.4-3.2-4.6h-.8v35.1h-10.1ZM756.2,148.5c4.2,0,7.8-1.1,10.6-3.4,2.9-2.3,5-5.4,6.4-9.2,1.5-3.8,2.2-8.1,2.2-12.8s-.7-8.9-2.1-12.7c-1.4-3.8-3.6-6.8-6.4-9-2.8-2.2-6.4-3.3-10.7-3.3s-7.6,1-10.5,3.1c-2.8,2.1-5,5-6.4,8.7-1.4,3.7-2.1,8.1-2.1,13.1s.7,9.4,2.2,13.2c1.5,3.8,3.6,6.8,6.4,9,2.9,2.1,6.3,3.2,10.4,3.2ZM822.4,157.6c-6,0-11.2-1.4-15.7-4.3-4.5-2.9-8-6.9-10.6-12-2.5-5.1-3.7-11.1-3.7-17.9s1.2-13,3.7-18.1c2.5-5.2,6.1-9.2,10.6-12.1,4.5-2.9,9.8-4.3,15.7-4.3s11.3,1.4,15.8,4.3c4.5,2.9,8,6.9,10.6,12.1,2.5,5.1,3.8,11.2,3.8,18.1s-1.3,12.8-3.8,17.9c-2.5,5.1-6.1,9.1-10.6,12-4.5,2.9-9.8,4.3-15.8,4.3ZM822.4,148.5c4.6,0,8.4-1.2,11.3-3.5,2.9-2.3,5.1-5.4,6.5-9.2,1.4-3.8,2.1-8,2.1-12.4s-.7-8.6-2.1-12.5c-1.4-3.8-3.6-6.9-6.5-9.3-2.9-2.4-6.7-3.6-11.3-3.6s-8.2,1.2-11.2,3.6c-2.9,2.3-5.1,5.4-6.5,9.3-1.4,3.8-2.1,8-2.1,12.5s.7,8.5,2.1,12.4c1.4,3.8,3.6,6.9,6.5,9.2,2.9,2.3,6.7,3.5,11.2,3.5ZM875.2,156.2l-20.2-66.4h10.7l14.4,50.9h.7l14.1-50.9h10.9l13.9,50.7h.7l14.4-50.7h10.7l-20.2,66.4h-10l-14.6-51h-1l-14.6,51h-10ZM978.9,157.6c-6.4,0-11.9-1.4-16.6-4.3-4.6-2.9-8.2-6.8-10.7-11.9-2.5-5.1-3.7-11.1-3.7-17.9s1.2-12.8,3.7-18c2.5-5.2,5.9-9.2,10.3-12.2,4.5-2.9,9.7-4.4,15.7-4.4s6.9.6,10.3,1.7c3.4,1.1,6.5,3,9.3,5.6,2.8,2.6,5,6,6.7,10.2,1.7,4.2,2.5,9.4,2.5,15.6v4.4h-51.2v-8.8h45.7l-4.7,3.3c0-4.4-.7-8.4-2.1-11.8-1.4-3.4-3.5-6.2-6.2-8.1-2.7-2-6.1-3-10.2-3s-7.6,1-10.5,3c-2.9,2-5.1,4.6-6.7,7.8-1.5,3.2-2.3,6.7-2.3,10.3v5.8c0,5,.9,9.3,2.6,12.8,1.7,3.5,4.2,6.1,7.3,8,3.1,1.8,6.8,2.7,10.9,2.7s5.1-.4,7.2-1.1c2.2-.8,4.1-2,5.6-3.5,1.6-1.6,2.8-3.5,3.6-5.8l9.9,2.9c-1,3.3-2.8,6.3-5.2,8.8-2.4,2.5-5.4,4.5-9,5.9-3.6,1.4-7.6,2.1-12.1,2.1ZM1016,156.2v-66.4h9.7v10.1h.7c1.2-3.3,3.4-5.9,6.6-8,3.2-2.1,6.8-3.1,10.8-3.1s1.7,0,2.8,0c1.1,0,2,0,2.6,0v10.3c-.4,0-1.1-.2-2.4-.4-1.2-.2-2.5-.2-3.9-.2-3.2,0-6.1.7-8.6,2-2.5,1.3-4.5,3.2-6,5.5-1.4,2.3-2.1,5-2.1,8v41.9h-10.1ZM1081.3,157.6c-6.4,0-11.9-1.4-16.6-4.3-4.6-2.9-8.2-6.8-10.7-11.9-2.5-5.1-3.7-11.1-3.7-17.9s1.2-12.8,3.7-18c2.5-5.2,5.9-9.2,10.3-12.2,4.5-2.9,9.7-4.4,15.7-4.4s6.9.6,10.3,1.7c3.4,1.1,6.5,3,9.3,5.6,2.8,2.6,5,6,6.7,10.2,1.7,4.2,2.5,9.4,2.5,15.6v4.4h-51.2v-8.8h45.7l-4.7,3.3c0-4.4-.7-8.4-2.1-11.8-1.4-3.4-3.5-6.2-6.2-8.1-2.7-2-6.1-3-10.2-3s-7.6,1-10.5,3c-2.9,2-5.1,4.6-6.7,7.8-1.5,3.2-2.3,6.7-2.3,10.3v5.8c0,5,.9,9.3,2.6,12.8,1.7,3.5,4.2,6.1,7.3,8,3.1,1.8,6.8,2.7,10.9,2.7s5.1-.4,7.2-1.1c2.2-.8,4.1-2,5.6-3.5,1.6-1.6,2.8-3.5,3.6-5.8l9.9,2.9c-1,3.3-2.8,6.3-5.2,8.8-2.4,2.5-5.4,4.5-9,5.9-3.6,1.4-7.6,2.1-12.1,2.1ZM1143.3,157.6c-5.5,0-10.4-1.4-14.7-4.2-4.2-2.8-7.5-6.8-9.9-11.9-2.4-5.2-3.6-11.3-3.6-18.3s1.2-13,3.6-18.1c2.4-5.1,5.7-9.1,10-11.9,4.2-2.8,9.2-4.2,14.7-4.2s7.8.7,10.3,2.1c2.5,1.4,4.5,3,5.8,4.9,1.3,1.8,2.4,3.2,3.1,4.4h.8v-32.7h10.1v88.5h-9.7v-10.2h-1.2c-.7,1.2-1.8,2.7-3.2,4.6-1.4,1.8-3.4,3.5-5.9,4.9-2.5,1.4-5.9,2.1-10.2,2.1ZM1144.7,148.5c4.1,0,7.6-1.1,10.4-3.2,2.8-2.2,4.9-5.2,6.4-9,1.5-3.8,2.2-8.3,2.2-13.2s-.7-9.3-2.1-13.1c-1.4-3.8-3.6-6.7-6.4-8.7-2.8-2.1-6.3-3.1-10.5-3.1s-7.8,1.1-10.7,3.3c-2.9,2.2-5,5.2-6.4,9-1.4,3.8-2.1,8-2.1,12.7s.7,9,2.1,12.8c1.5,3.8,3.6,6.9,6.5,9.2,2.9,2.3,6.4,3.4,10.6,3.4ZM1245.5,157.6c-4.2,0-7.6-.7-10.2-2.1-2.6-1.5-4.6-3.1-5.9-4.9-1.4-1.9-2.5-3.4-3.2-4.6h-1.2v10.2h-9.7v-88.5h10.1v32.7h.8c.8-1.1,1.8-2.6,3.1-4.4,1.3-1.8,3.3-3.4,5.8-4.9,2.5-1.4,6-2.1,10.3-2.1s10.5,1.4,14.7,4.2c4.2,2.8,7.6,6.7,9.9,11.9,2.4,5.1,3.6,11.1,3.6,18.1s-1.2,13.1-3.6,18.3c-2.4,5.1-5.7,9.1-9.9,11.9-4.2,2.8-9.1,4.2-14.7,4.2ZM1244.2,148.5c4.2,0,7.8-1.1,10.6-3.4,2.9-2.3,5-5.4,6.4-9.2,1.5-3.8,2.2-8.1,2.2-12.8s-.7-8.9-2.1-12.7c-1.4-3.8-3.6-6.8-6.4-9-2.8-2.2-6.4-3.3-10.7-3.3s-7.6,1-10.5,3.1c-2.8,2.1-4.9,5-6.4,8.7-1.4,3.7-2.1,8.1-2.1,13.1s.7,9.4,2.2,13.2c1.5,3.8,3.6,6.8,6.4,9,2.9,2.1,6.3,3.2,10.4,3.2ZM1287.7,181c-1.7,0-3.3,0-4.6-.4-1.3-.3-2.3-.6-2.9-.8l2.6-8.9,1,.2c3.4.8,6.3.6,8.6-.5,2.3-1.1,4.4-4.1,6.1-8.9l1.9-5.2-24.5-66.8h11l18.3,53h.7l18.3-53h11.1l-28.2,76c-1.3,3.4-2.8,6.3-4.7,8.6-1.9,2.3-4,3.9-6.5,5-2.5,1.1-5.2,1.7-8.3,1.7Z"/>
  <path class="st1" d="M1571.1,259.4c-6.6,0-11.7-5.1-11.7-11.6s5.2-11.6,11.7-11.6,11.7,5.1,11.7,11.6-5.2,11.6-11.7,11.6ZM1571.1,237.8c-5.4,0-10.1,4.4-10.1,9.7v.2c0,5.3,4.4,10,10.1,10s10.1-4.4,10.1-10-4.4-10-10.1-10q.2,0,0,0ZM1574.3,254.5l-3.5-5.3h-2.3v5.3h-1.9v-13.5h5.4c2.3-.2,4.2,1.6,4.4,3.9v.2c0,1.9-1.4,3.7-3.3,3.9l3.7,5.3h-2.6ZM1572,242.6h-3.7v4.6h3.7c1.2,0,2.3-.9,2.6-2.3-.2-1.2-1.2-2.3-2.6-2.3Z"/>
  <path class="st1" d="M79.7,307.9v-50.8h39.8c17.1,0,28.4,10.2,28.4,25.3s-11.5,25.5-28.4,25.5h-39.8ZM143.6,401.4h40.5l-29.3-71.2,1.4-.5c12.9-5.1,27.6-20.7,27.6-47.1s-23.7-55.9-58.8-55.9H44.5v174.7h35.1v-63.1h40.5l23.4,63.1Z"/>
  <path class="st1" d="M246.3,272.1h-34.2v129h34.2v-129Z"/>
  <path class="st1" d="M246.3,225.9h-34.2v30.2h34.2v-30.2Z"/>
  <path class="st1" d="M445.4,401.4v-81.9c0-12.1-5.4-20.7-19.4-20.7-10.8.5-20.9,6-26.9,15.1v87.3h-34.7v-81.7c0-12.1-5.4-20.7-19.4-20.7-11,.5-20.9,6.3-26.9,15.1v87.3h-34.2v-129h34.2v16.9c10.5-12.5,26.2-19.7,42.6-20,19.4,0,31.4,8.8,36.1,23.4,10.3-14.6,26.9-23.4,44.8-23.4s38.4,12.5,38.4,39.2v93.3l-34.4-.2Z"/>
  <path class="st1" d="M549,225.9h-34.2v30.2h34.2v-30.2Z"/>
  <path class="st1" d="M549,272.1h-34.2v129h34.2v-129Z"/>
  <path class="st1" d="M672.2,401.4v-78.2c0-17.9-9.4-23.9-24.1-23.9-11.7.2-22.7,5.8-29.8,15.1v86.8h-34.2v-129h34.2v16.9c11.5-13,28.1-20.4,45.5-20,28.6,0,42.4,16,42.4,41.3v91.2l-34-.2Z"/>
  <path class="st1" d="M773,225.9h-34.2v30.2h34.2v-30.2Z"/>
  <path class="st1" d="M773,272.1h-34.2v129h34.2v-129Z"/>
  <path class="st1" d="M977.1,349.6c0-38.5-36.6-47.3-65.8-54.1-19.4-4.9-36.3-8.6-36.3-20.7s10.3-19.3,26.9-19.3c18.7-.2,37,6.5,51.5,18.6l19.4-25.3c-17.3-15.5-40.1-23.2-67.2-23.2-38.9,0-66.1,21.3-66.1,52.2s35.6,46.4,64.2,53.4c20.6,4.6,38.2,8.8,38.2,22.7s-10.1,21.1-32.3,21.1c-21.1.2-41.5-8.1-56.5-23l-19,25.8c18,17.6,42.6,26.7,73.3,26.7,43.6.2,69.8-20.4,69.6-55Z"/>
  <path class="st1" d="M1008.9,369.1v-67.3h-21.6v-29.7h21.6v-35.3h34.7v35.3h26.5v29.7h-26.5v58.2c0,8.1,4.4,14.4,11.9,14.4,4.2.2,8.4-1.2,11.9-3.7l7.3,25.5c-5.2,4.6-14.3,8.4-28.6,8.4-24.1,0-37-12.3-37-35.3"/>
  <path class="st1" d="M1099.6,401.4v-129h34v17.6c10.1-12.5,25.3-20.2,41.7-20.9v33c-3-.5-6.3-.9-9.4-.9-11.5,0-26.5,6.5-32.1,14.9v85.4h-34.2Z"/>
  <path class="st1" d="M1183.3,336.6c-.9-36.4,27.9-66.6,64.4-67.8h3.1c38.9,0,65.1,28.8,65.1,71.2v7.4h-97c2.3,16.2,15.5,29.9,37.5,29.9,12.9-.2,25.1-4.6,34.9-12.8l15.2,22c-12.9,11.8-33.5,17.9-53.7,17.9-39.8-.2-69.6-26.7-69.6-68ZM1250.8,296c-16.6-.5-30.9,12.3-32.1,28.8h64.2c-.5-16.5-14.5-29.5-31.4-28.8h-.7Z"/>
  <path class="st1" d="M1328.3,336.6c-.9-36.4,27.9-66.6,64.4-67.8h3.1c38.9,0,65.1,28.8,65.1,71.2v7.4h-96.8c2.1,16.2,15.2,29.9,37.5,29.9,12.9-.2,25.1-4.6,34.9-12.8l15.2,22c-12.9,11.8-33.5,17.9-53.7,17.9-40.1-.2-70.1-26.7-69.8-68ZM1395.6,296c-16.6-.5-30.9,12.3-32.1,28.8h64.2c-.5-16.5-14.5-29.5-31.2-28.8h-.9Z"/>
  <path class="st1" d="M1493.7,369.1v-67.3h-21.6v-29.7h21.6v-35.3h34.7v35.3h26.5v29.7h-26.5v58.2c0,8.1,4.5,14.4,11.9,14.4,4.2.2,8.4-1.2,12-3.7l7.3,25.5c-5.2,4.6-14.5,8.4-28.6,8.4-24.1,0-37-12.3-37-35.3"/>
  <path class="st0" d="M1581.6,460.3H44.5v34.8h1537.1v-34.8Z"/>
</svg>