<?xml version="1.0" encoding="UTF-8"?>
<svg id="Layer_1" xmlns="http://www.w3.org/2000/svg" xmlns:xlink="http://www.w3.org/1999/xlink" version="1.1" viewBox="0 0 255.9 51">
  <!-- Generator: Adobe Illustrator 29.3.1, SVG Export Plug-In . SVG Version: 2.1.0 Build 151)  -->
  <defs>
    <style>
      .st0 {
        fill: none;
      }

      .st1, .st2 {
        fill-rule: evenodd;
      }

      .st1, .st3 {
        fill: #fff;
      }

      .st2 {
        fill: #62d84e;
      }

      .st4 {
        clip-path: url(#clippath);
      }
    </style>
    <clipPath id="clippath">
      <rect class="st0" width="255.9" height="51"/>
    </clipPath>
  </defs>
  <g class="st4">
    <g>
      <path class="st1" d="M61.6,13.3c-2.6,0-5.1,1-7.1,2.7v-2.4h-6.4v26.8h6.7v-17.2c.7-1,1.6-1.8,2.7-2.4,1.1-.6,2.2-.9,3.4-.9.9,0,1.8,0,2.7.4v-6.9c-.6-.1-1.3-.2-2-.2Z"/>
      <path class="st1" d="M3.2,32.2c1.9,1.7,4.3,2.7,6.8,2.7,1.8,0,3.2-.9,3.2-2.3,0-4-12.1-2.6-12.1-11.2s4.6-8.4,9.6-8.4c3,0,5.9,1,8.4,2.7l-3.1,5.2c-1.4-1.1-3.1-1.8-4.8-1.8-1.9,0-3.4.8-3.4,2.2,0,3.5,12.1,2.1,12.1,11.4s-4.7,8.3-9.9,8.3c-3.6,0-7.1-1.3-10-3.6l3.2-5.2Z"/>
      <path class="st1" d="M45.2,26.8c0-7.5-4.9-13.7-11.8-13.7s-12.1,6.5-12.1,14c0,1.9.2,3.7.8,5.4.6,1.7,1.6,3.3,2.8,4.6,1.2,1.3,2.7,2.3,4.3,3,1.6.7,3.4,1,5.1.9,1.9,0,3.8-.4,5.6-1.2,1.8-.8,3.3-2.1,4.6-3.6l-3.8-4.1c-.8.9-1.8,1.7-2.8,2.2-1.1.5-2.2.8-3.4.9-1.7,0-3.3-.6-4.5-1.7-1.3-1.2-2-2.8-2.2-4.6h17.3c.1-.7.2-1.4.2-2.1ZM28.1,23.6c.2-1.3.9-2.5,1.9-3.4,1-.9,2.2-1.3,3.5-1.3,1.2,0,2.4.5,3.3,1.3.9.9,1.5,2.1,1.6,3.4h-10.3Z"/>
      <path class="st1" d="M79.5,30l6.8-16.4h7l-11.5,26.8h-4.6l-11.5-26.8h6.9l6.8,16.4Z"/>
      <path class="st1" d="M98.9,1c.8,0,1.7.3,2.4.8.7.5,1.2,1.2,1.5,2.1.3.8.4,1.8.2,2.7-.2.9-.6,1.7-1.2,2.3-.6.6-1.4,1.1-2.2,1.2-.8.2-1.7,0-2.5-.3-.8-.4-1.4-.9-1.9-1.7-.5-.8-.7-1.6-.7-2.5,0-.6.1-1.2.3-1.8.2-.6.5-1.1,1-1.5.4-.4.9-.8,1.4-1,.5-.2,1.1-.3,1.7-.3Z"/>
      <path class="st3" d="M102.3,13.6h-6.7v26.8h6.7V13.6Z"/>
      <path class="st1" d="M129.9,35c-1.3,1.9-3,3.5-4.9,4.6-2,1.1-4.2,1.6-6.4,1.5-1.7,0-3.5-.3-5.1-1-1.6-.7-3.1-1.7-4.3-3-1.2-1.3-2.2-2.9-2.9-4.6-.7-1.7-1-3.6-1-5.4,0-1.9.4-3.7,1-5.4.7-1.7,1.7-3.3,2.9-4.6,1.3-1.3,2.7-2.3,4.4-3,1.6-.7,3.4-1,5.1-.9,2,0,4,.5,5.8,1.4,1.8.9,3.4,2.3,4.7,4l-4.7,4.5c-.7-1-1.5-1.8-2.5-2.3-1-.6-2.1-.9-3.2-.9-.9,0-1.8.2-2.6.6-.8.4-1.6.9-2.2,1.6-.6.7-1.1,1.5-1.4,2.4-.3.9-.5,1.8-.5,2.8,0,1,.1,1.9.5,2.9.3.9.8,1.7,1.5,2.4.6.7,1.4,1.2,2.3,1.6.8.4,1.8.5,2.7.5,1.2,0,2.4-.4,3.4-1,1-.6,1.9-1.5,2.6-2.6l5.1,4.1Z"/>
      <path class="st1" d="M154.2,36.2c-1.3,1.5-2.9,2.8-4.6,3.6-1.8.8-3.7,1.2-5.6,1.2-1.7,0-3.5-.2-5.1-.9s-3.1-1.7-4.3-3c-1.2-1.3-2.2-2.9-2.8-4.6-.6-1.7-.9-3.6-.8-5.4,0-7.5,4.7-14,12.1-14s11.8,6.3,11.8,13.7c0,.7,0,1.4-.2,2h-17.3c.2,1.8.9,3.4,2.2,4.6,1.3,1.2,2.9,1.8,4.5,1.8,1.2,0,2.4-.3,3.4-.9,1.1-.5,2-1.3,2.8-2.2l3.8,4.1ZM148,23.6c-.1-1.3-.7-2.5-1.6-3.4-.9-.9-2.1-1.3-3.3-1.3-1.3,0-2.5.5-3.5,1.3-1,.9-1.6,2.1-1.9,3.4h10.3Z"/>
      <path class="st1" d="M157.5,40.4V13.6h6.4v2.2c2-1.8,4.5-2.7,7.1-2.7,1.6,0,3.3.4,4.8,1.1,1.5.7,2.8,1.8,3.9,3.2,1.9,2.7,2.8,6,2.6,9.4v13.7h-6.7v-14.2c0-.9,0-1.8-.2-2.7-.3-.9-.7-1.7-1.2-2.3-1-1-2.4-1.5-3.8-1.5-1.2,0-2.3.4-3.4.9-1.1.6-2,1.4-2.7,2.4v17.4h-6.7Z"/>
      <path class="st2" d="M199.4,13c-2.9,0-5.8.9-8.2,2.7-2.4,1.8-4.3,4.3-5.4,7.2-1.1,2.9-1.3,6.1-.7,9.2.6,3.1,2.1,5.9,4.2,8,.5.5,1.2.8,1.8.9.7,0,1.4-.2,1.9-.6,1.8-1.4,4-2.2,6.2-2.2s4.4.8,6.2,2.2c.6.5,1.2.7,1.9.6.7,0,1.4-.4,1.9-.9,2.1-2.2,3.6-4.9,4.2-8,.6-3.1.4-6.2-.7-9.1-1.1-2.9-2.9-5.4-5.3-7.2-2.4-1.8-5.2-2.7-8.2-2.8M199.4,36.6c-1,0-1.9-.2-2.8-.5-.9-.4-1.7-1-2.4-1.7-.7-.7-1.2-1.6-1.6-2.6-.4-1-.5-2-.5-3,0-2.1.8-4.1,2.1-5.5,1.4-1.5,3.2-2.3,5.2-2.3s3.8.8,5.2,2.3c1.4,1.5,2.1,3.5,2.1,5.5,0,1-.1,2.1-.5,3-.4,1-.9,1.8-1.6,2.6-.7.7-1.5,1.3-2.4,1.7-.9.4-1.9.6-2.8.5Z"/>
      <path class="st1" d="M227.2,40.4h-5l-9.9-26.8h6.7l5.4,15.3,5.3-15.3h5.6l5.3,15.3,5.5-15.3h6.7l-9.9,26.8h-5l-5.3-15.3-5.3,15.3Z"/>
      <path class="st3" d="M252.8,34.2c.5,0,1.1.2,1.5.5.4.3.8.8,1,1.3.2.5.3,1.1.2,1.7-.1.6-.4,1.1-.7,1.5-.4.4-.9.7-1.4.8-.5.1-1.1,0-1.6-.2-.5-.2-.9-.6-1.2-1.1-.3-.5-.5-1-.5-1.6,0-.8.3-1.5.8-2,.5-.5,1.2-.8,1.9-.8ZM252.8,33.7c-.6,0-1.2.2-1.7.6-.5.4-.9.9-1.2,1.5-.2.6-.3,1.3-.2,1.9.1.6.4,1.2.9,1.7.4.5,1,.8,1.6.9.6.1,1.2,0,1.8-.2.6-.3,1.1-.7,1.4-1.2.3-.6.5-1.2.5-1.9s-.3-1.7-.9-2.4c-.6-.6-1.4-1-2.2-1Z"/>
      <path class="st3" d="M252,45.6h-.6v1.4h-.5v-3.8h1.2c.1,0,.2,0,.4,0,.1,0,.2.2.3.3,0,.1.2.2.2.4,0,.1,0,.3,0,.5,0,.2,0,.5-.2.7-.1.2-.2.3-.4.4l.7,1.5h-.5l-.6-1.4ZM251.4,45.1h.7c.1,0,.3,0,.3-.2,0-.1.1-.3.1-.5s0-.3-.1-.5c0-.1-.2-.2-.3-.2h-.7v1.3Z"/>
    </g>
  </g>
</svg>